<svg xmlns="http://www.w3.org/2000/svg" viewBox="0 0 64 64"><title>Artboard-24</title><g id="Cutlery"><path d="M32,6A26,26,0,1,0,58,32,26.0289,26.0289,0,0,0,32,6ZM10.8,27.8887a2.729,2.729,0,0,1,0-3.86,2.7911,2.7911,0,0,1,3.8662-.0058L19.4736,28.83l.4229-.4209L15.09,23.5977a2.73,2.73,0,0,1,3.86-3.86l4.8057,4.8076.4257-.4248L19.375,19.3135a2.729,2.729,0,0,1,0-3.86,2.791,2.791,0,0,1,3.8662-.0058l5.5137,5.5136a5.34,5.34,0,0,1,0,7.544l-.52.52,2.0722,2.0723a1,1,0,0,1-1.414,1.414l-2.7793-2.7793a.9994.9994,0,0,1,0-1.414l1.2265-1.2266a3.339,3.339,0,0,0,0-4.7158l-5.5137-5.5137a.7457.7457,0,0,0-1.03,0,.7275.7275,0,0,0-.0078,1.0381l5.5136,5.5137a.9995.9995,0,0,1,0,1.414l-1.84,1.8389a1,1,0,0,1-1.4141,0l-5.5127-5.5137a.7292.7292,0,1,0-1.0312,1.0313l5.5137,5.5205a1,1,0,0,1-.001,1.415l-1.8389,1.8321a.9994.9994,0,0,1-1.4131-.001L13.252,25.4365a.7482.7482,0,0,0-1.0323,0,.7348.7348,0,0,0-.22.5225.7215.7215,0,0,0,.2139.5146l5.5127,5.5147a3.342,3.342,0,0,0,4.7168,0L23.66,30.7637a.9952.9952,0,0,1,.707-.2949h.0019a.9992.9992,0,0,1,.7071.2929l2.7871,2.7871a1,1,0,1,1-1.4141,1.4141l-2.0781-2.0781-.5117.5156a5.3418,5.3418,0,0,1-7.5469.0019ZM45.19,49.834a2.7337,2.7337,0,0,1-3.8682.0019l-8.3457-8.3466a1,1,0,0,1,1.414-1.4141l8.3467,8.3467a.7474.7474,0,0,0,1.0362,0,.7341.7341,0,0,0,.0009-1.0381l-8.3457-8.3467a1,1,0,1,1,1.4141-1.4141L45.1885,45.97A2.7383,2.7383,0,0,1,45.19,49.834Zm2.7919-19.7295c-3.91,4.0293-7.0761,3.0937-8.5429,2.2529L21.9619,49.835a2.7324,2.7324,0,0,1-3.8642-3.8643L35.7549,28.3125c-.6709-1.5986-1.0928-4.6035,2.4228-8.2256,3.8125-3.9316,7.4619-4.39,9.8516-4.0762a4.5487,4.5487,0,0,1,3.8955,3.9952C52.2236,22.4512,51.7813,26.1875,47.9814,30.1045Z" style="fill:#1b1b1e"/><path d="M32,0A32,32,0,1,0,64,32,32.0367,32.0367,0,0,0,32,0Zm0,60A28,28,0,1,1,60,32,28.0314,28.0314,0,0,1,32,60Z" style="fill:#1b1b1e"/><path d="M47.7715,17.9932a7.4313,7.4313,0,0,0-.9541-.0606c-1.8955,0-4.46.7178-7.2041,3.5469-3.0576,3.15-2.43,5.4355-1.7832,6.5176a.999.999,0,0,1-.1514,1.22l-18.167,18.168a.7327.7327,0,0,0,1.0362,1.0361L38.6123,30.3555a.9989.9989,0,0,1,1.3574-.0528c.6436.5518,3.0235,2.0723,6.5762-1.5908,3.25-3.35,3.64-6.4512,3.3945-8.4639A2.5208,2.5208,0,0,0,47.7715,17.9932Zm-.9551,2.8232c-1.6865,0-3.4131.8984-5.1328,2.6709a1,1,0,0,1-1.4356-1.3926c2.11-2.1758,4.32-3.2783,6.5684-3.2783a1,1,0,0,1,0,2Z" style="fill:#1b1b1e"/></g></svg>